<?xml version="1.0" encoding="UTF-8" standalone="no"?>
<!-- Created with Inkscape (http://www.inkscape.org/) -->

<svg
   width="711.883"
   height="786.91284"
   viewBox="0 0 188.35239 208.20402"
   version="1.1"
   id="svg5"
   xml:space="preserve"
   inkscape:version="1.2.1 (9c6d41e410, 2022-07-14)"
   sodipodi:docname="MISRACFreelance.svg"
   inkscape:export-filename="MISRACFreelance.png"
   inkscape:export-xdpi="96"
   inkscape:export-ydpi="96"
   xmlns:inkscape="http://www.inkscape.org/namespaces/inkscape"
   xmlns:sodipodi="http://sodipodi.sourceforge.net/DTD/sodipodi-0.dtd"
   xmlns="http://www.w3.org/2000/svg"
   xmlns:svg="http://www.w3.org/2000/svg"><sodipodi:namedview
     id="namedview7"
     pagecolor="#505050"
     bordercolor="#eeeeee"
     borderopacity="1"
     inkscape:showpageshadow="0"
     inkscape:pageopacity="0"
     inkscape:pagecheckerboard="0"
     inkscape:deskcolor="#505050"
     inkscape:document-units="mm"
     showgrid="false"
     inkscape:zoom="0.45789843"
     inkscape:cx="1721.9976"
     inkscape:cy="1196.772"
     inkscape:window-width="3440"
     inkscape:window-height="1369"
     inkscape:window-x="-8"
     inkscape:window-y="1072"
     inkscape:window-maximized="1"
     inkscape:current-layer="layer1" /><defs
     id="defs2" /><g
     inkscape:label="Layer 1"
     inkscape:groupmode="layer"
     id="layer1"
     transform="translate(-100.11818,-181.64799)"><g
       id="g5420"
       transform="translate(-312.46711,-117.01514)"><path
         style="fill:#ffffff;fill-opacity:1;stroke-width:0.264583"
         d="m 504.23548,506.63129 c -0.72761,-0.18869 -1.73964,-0.55876 -2.24896,-0.82237 -1.19218,-0.61704 -27.65359,-15.42524 -39.02604,-21.83956 -3.22503,-1.81899 -7.7591,-4.36139 -31.61771,-17.72905 -7.3488,-4.11743 -13.98923,-7.95065 -14.75651,-8.51825 -0.76728,-0.56761 -1.801,-1.6512 -2.29715,-2.40798 -1.86678,-2.84743 -1.74485,1.044 -1.66839,-53.24541 l 0.0689,-48.93681 0.84913,-1.79262 c 0.51082,-1.07842 1.36258,-2.29067 2.13789,-3.0427 1.26617,-1.22817 2.33406,-1.83823 45.29944,-25.87861 3.41974,-1.91344 11.69459,-6.55123 18.38854,-10.30619 20.87925,-11.71218 22.451,-12.56726 23.9448,-13.02663 1.86196,-0.5726 5.26749,-0.56055 6.8994,0.0244 1.31899,0.47279 1.25594,0.43876 12.81205,6.91443 8.89771,4.98598 23.75553,13.28457 37.43855,20.91067 5.02047,2.79811 13.17625,7.3482 18.12395,10.1113 4.94771,2.76311 10.90084,6.08406 13.22917,7.37989 4.42886,2.46488 6.92148,4.49279 7.93841,6.45844 1.21986,2.35787 1.18325,0.75773 1.18658,51.87512 0.003,43.67395 -0.0378,48.44234 -0.42358,49.74166 -0.48993,1.65002 -1.90234,3.90162 -3.0568,4.87304 -1.03049,0.8671 0.441,0.0299 -34.88107,19.845 -16.80765,9.42881 -35.02422,19.65164 -40.48125,22.71739 -5.45703,3.06576 -10.58859,5.84429 -11.40347,6.17452 -1.85052,0.74994 -4.6885,0.97866 -6.4559,0.52031 z"
         id="path5422"
         transform="translate(-7.9166666e-6)"
         sodipodi:nodetypes="ssssssscssssssssssscsssssss" /><path
         style="fill:#5c6bc0;fill-opacity:1;stroke-width:0.264583"
         d="m 504.23548,506.63129 c -0.72761,-0.18869 -1.73964,-0.55876 -2.24896,-0.82237 -1.19218,-0.61704 -27.65359,-15.42524 -39.02604,-21.83956 -3.22503,-1.81899 -7.7591,-4.36139 -31.61771,-17.72905 -7.3488,-4.11743 -13.98923,-7.95065 -14.75651,-8.51825 -0.76728,-0.56761 -1.801,-1.6512 -2.29715,-2.40798 -1.86678,-2.84743 -1.74485,1.044 -1.66839,-53.24541 l 0.0689,-48.93681 0.84913,-1.79262 c 0.51082,-1.07842 1.36258,-2.29067 2.13789,-3.0427 1.26617,-1.22817 2.33406,-1.83823 45.29944,-25.87861 3.41974,-1.91344 11.69459,-6.55123 18.38854,-10.30619 20.87925,-11.71218 22.451,-12.56726 23.9448,-13.02663 1.86196,-0.5726 5.26749,-0.56055 6.8994,0.0244 1.31899,0.47279 1.25594,0.43876 12.81205,6.91443 8.89771,4.98598 23.75553,13.28457 37.43855,20.91067 5.02047,2.79811 13.17625,7.3482 18.12395,10.1113 4.94771,2.76311 10.90084,6.08406 13.22917,7.37989 4.42886,2.46488 6.92148,4.49279 7.93841,6.45844 1.21986,2.35787 1.18325,0.75773 1.18658,51.87512 0.003,43.67395 -0.0378,48.44234 -0.42358,49.74166 -0.48993,1.65002 -1.90234,3.90162 -3.0568,4.87304 -1.03049,0.8671 0.441,0.0299 -34.88107,19.845 -16.80765,9.42881 -35.02422,19.65164 -40.48125,22.71739 -5.45703,3.06576 -10.58859,5.84429 -11.40347,6.17452 -1.85052,0.74994 -4.6885,0.97866 -6.4559,0.52031 z m 10.98021,-34.98933 c 12.7652,-1.51237 24.73403,-6.58996 35.17363,-14.92189 3.25778,-2.60005 7.63815,-6.94012 10.16516,-10.07164 1.70312,-2.11053 6.52286,-9.12046 6.51667,-9.47797 -0.004,-0.20616 -29.98317,-16.70799 -30.31531,-16.68662 -0.13266,0.009 -0.77698,0.86451 -1.43182,1.90216 -1.61628,2.56113 -6.20716,7.14377 -8.99583,8.97969 -12.29664,8.09549 -26.90283,8.0934 -39.15834,-0.006 -2.70573,-1.78808 -6.79754,-5.7861 -8.71013,-8.51051 -7.78492,-11.08928 -8.44652,-25.65647 -1.70067,-37.44588 4.88923,-8.54469 13.25091,-14.53252 23.28875,-16.67714 2.73863,-0.58512 9.0435,-0.71231 11.99289,-0.24195 8.02597,1.27998 15.74515,5.53332 20.81148,11.46733 0.94833,1.11073 2.09588,2.59246 2.55012,3.29271 0.52671,0.81199 0.97361,1.23411 1.2337,1.16529 0.35782,-0.0947 29.6131,-16.7389 29.86573,-16.99153 0.15913,-0.15913 -2.7783,-4.54948 -4.95412,-7.40451 -2.29586,-3.01256 -7.93692,-8.79704 -10.87775,-11.15432 -10.5682,-8.47116 -22.60298,-13.53744 -36.11562,-15.2036 -3.40612,-0.41999 -12.2043,-0.41999 -15.61042,0 -13.17391,1.62439 -24.74023,6.40352 -35.32187,14.59476 -3.03049,2.34589 -8.48783,7.74462 -10.9519,10.83426 -7.96916,9.99235 -13.03729,21.84859 -14.87267,34.79271 -0.614,4.33026 -0.61732,13.10455 -0.007,17.59479 3.17909,23.37595 17.45526,43.29478 38.39892,53.5761 12.25434,6.01569 25.29946,8.21964 39.02604,6.59337 z"
         id="path3276" /><path
         style="fill:#3949ab;fill-opacity:1;stroke-width:0.264583"
         d="m 505.1583,506.67972 c -0.80214,-0.10288 -1.78768,-0.31224 -2.1901,-0.46524 -0.40241,-0.153 -10.58081,-5.80534 -22.61865,-12.56076 -12.03784,-6.75541 -31.0892,-17.44723 -42.33635,-23.75961 -11.24715,-6.31236 -20.971,-11.88948 -21.60855,-12.39359 -1.10447,-0.8733 -3.05355,-3.45632 -3.05355,-4.04671 0,-0.15306 0.16138,-0.0576 0.35862,0.21214 0.19724,0.26974 0.52737,0.42568 0.73363,0.34653 0.20626,-0.0791 7.34823,-4.12685 15.87103,-8.99489 l 15.49602,-8.85098 0.74957,1.33345 c 1.21889,2.16836 4.19325,6.48679 6.09196,8.84484 6.23905,7.74838 14.15193,14.10465 23.15721,18.60175 30.13772,15.05031 66.54147,6.27545 86.83276,-20.93041 1.56135,-2.09341 4.43212,-6.55795 4.43212,-6.89272 0,-0.10856 -6.34008,-3.67999 -14.08906,-7.9365 -7.74899,-4.25651 -14.58079,-8.02199 -15.18178,-8.36772 l -1.09271,-0.62861 -0.89166,1.39499 c -7.90419,12.36592 -23.49319,18.41079 -37.80104,14.65791 -6.599,-1.73088 -12.96617,-5.62968 -17.21667,-10.54225 -1.50547,-1.73998 -4.74375,-6.41481 -4.74375,-6.84816 0,-0.0964 0.20836,-0.23462 0.46302,-0.30722 0.51029,-0.14547 58.75246,-33.34378 59.23848,-33.76621 0.16639,-0.14462 0.36246,-0.20303 0.43569,-0.12979 0.18888,0.18887 30.35031,-17.08548 30.35031,-17.38252 0,-0.13472 0.10364,-0.24495 0.2303,-0.24495 0.18956,0 24.35215,-13.66934 29.79384,-16.85507 1.11296,-0.65156 1.70079,-0.85543 1.98437,-0.68822 0.22162,0.13068 0.81967,1.0627 1.32899,2.07114 l 0.92605,1.83354 v 49.35663 49.35662 l -0.8453,1.71705 c -1.30469,2.65023 -2.75281,3.8882 -8.0019,6.84064 -2.55561,1.43744 -10.00437,5.61899 -16.55281,9.29234 -6.54843,3.67335 -14.82328,8.31697 -18.38854,10.31916 -3.56526,2.00219 -11.8401,6.64684 -18.38854,10.32144 -6.54844,3.6746 -15.29953,8.58831 -19.44687,10.91936 -4.14735,2.33104 -7.93771,4.40441 -8.42302,4.60748 -1.24152,0.51947 -3.8824,0.78583 -5.60312,0.56512 z"
         id="path3274" /><path
         style="fill:#273493;fill-opacity:1;stroke-width:0.264583"
         d="m 503.70631,506.3515 c -1.55859,-0.49421 -0.84627,-0.10183 -35.58646,-19.60222 -17.68078,-9.9246 -36.37359,-20.41127 -41.53958,-23.30374 -9.4722,-5.30352 -11.36954,-6.60465 -12.53965,-8.59925 -0.27561,-0.4698 -0.37082,-0.77367 -0.21157,-0.67525 0.22353,0.13815 20.26855,-11.06024 30.29883,-16.92681 0.84717,-0.4955 1.57775,-0.90091 1.62349,-0.90091 0.0457,0 0.59477,0.86321 1.22005,1.91823 5.90863,9.9695 14.82132,18.77614 24.96148,24.66446 18.26492,10.6063 40.66991,12.27047 60.39145,4.48566 13.6352,-5.3823 25.85661,-15.59395 33.48814,-27.98114 0.7323,-1.18864 1.35459,-2.19012 1.38288,-2.2255 0.0283,-0.0354 5.51919,2.94865 12.20201,6.63118 18.72428,10.3179 19.65856,10.81478 19.97132,10.62149 0.16103,-0.0995 0.11475,0.16332 -0.10285,0.5841 -0.66638,1.28864 -2.82486,3.06988 -5.60121,4.6223 -3.00525,1.6804 -14.28735,8.01064 -25.33385,14.21448 -4.11096,2.30876 -10.92729,6.13414 -15.1474,8.50083 -4.2201,2.3667 -10.58994,5.94071 -14.1552,7.94226 -3.56526,2.00154 -11.26595,6.32477 -17.11263,9.60718 -5.84668,3.28241 -11.25587,6.15378 -12.02042,6.38083 -1.65139,0.49041 -4.70896,0.51108 -6.18883,0.0418 z m -0.26458,-69.11261 c -1.95663,-0.20604 -6.29135,-1.19815 -8.1806,-1.87234 -5.39523,-1.92534 -9.94263,-4.95341 -14.12422,-9.4052 -2.39856,-2.55354 -5.08913,-6.65322 -4.64815,-7.0825 0.17818,-0.17344 15.77169,-9.11952 27.32642,-15.67732 0.78748,-0.44693 1.36323,-0.70167 1.27944,-0.5661 -0.0838,0.13557 6.8029,4.05461 15.30375,8.70896 8.50085,4.65436 15.64327,8.58643 15.87204,8.73792 0.35728,0.2366 0.20349,0.57249 -1.09031,2.38125 -5.41039,7.56391 -12.94591,12.47054 -21.92254,14.27451 -2.08728,0.41946 -7.81375,0.71164 -9.81583,0.50082 z"
         id="path3225" /></g></g></svg>
