<svg id="Layer_1" data-name="Layer 1" xmlns="http://www.w3.org/2000/svg" viewBox="0 0 1080 1080"><defs><style>.cls-1{fill:#fff;}</style></defs><path class="cls-1" d="M819.05,201c2.36.75,4.79,1.33,7.07,2.28,7.18,3,11.27,8.59,12.61,16.11a15.3,15.3,0,0,0,4.12,8.32c5,5.27,5.76,11.13,2.47,16.85a12.12,12.12,0,0,1-10.77,6.49c-8.33.14-16.67,0-25,.06-6.36,0-12.73.24-19.09.25-4.5,0-9,.07-13.49-.32-12-1-14.92-10.11-12.35-18.61,1-3.44,3.71-5.67,7-6.92a32.1,32.1,0,0,1,5.4-1.36,7.55,7.55,0,0,0,5.77-3.88c2.39-4.44,6.16-6.93,11.06-8a10.61,10.61,0,0,0,4.89-2.43c4.31-4.17,9.07-7.43,15-8.8Z"/><path class="cls-1" d="M458.94,389.15c-2.58-1.72-4.63-3-6.54-4.4-2.62-2-5.26-4-7.67-6.18a15.73,15.73,0,0,1-4.93-11.48c-.16-4.73-.15-9.44,2.24-13.79,4.71-8.55,11.61-13.28,21.68-13.51a24.17,24.17,0,0,1,23.86,18.8c1.51,6.6-.06,12.62-3.54,18.23-1.37,2.21-3,4.29-4.89,7.05a403.66,403.66,0,0,1,70.6-9.43,393.06,393.06,0,0,1,70.81,3.37c-.59-2.42-1.14-4.49-1.61-6.58-2.89-13.09,5.92-26.93,19.09-29.5A24.17,24.17,0,0,1,666.45,361a18,18,0,0,1-.84,10.06c-1.26,3.27-2.78,6.43-4.28,9.6-.69,1.45-1.61,2.8-2.6,4.49A387.06,387.06,0,0,1,785.5,442.74l8.07-10.35-33.86-27.17c7.35-.61,14.24-1.07,21.11-1.78a68.63,68.63,0,0,0,20.75-5.78L786,384.83c7.68-.59,15-1,22.21-1.76a86.36,86.36,0,0,0,21.72-5.55L817.54,367c10.9-.19,21.61,0,31.1-6.63l-6-6.2C855,352.71,866,348.62,875.81,341c-4.65,11.39-7,23-4.73,35.87l-7.6-4.94c-4.83,11-1.87,21.47,1.4,32.74-5.16-3.34-9-7.12-13.92-10.43-2.36,15.22-.53,29.79,3.6,44.94-6-4-10.92-8.41-16.6-12.44-3.57,14.46-.47,28.21,1.77,42.28L805.9,442.25l-7.49,9.29c3.21,2.76,6.22,5.45,9.33,8a373,373,0,0,1,32.13,29.71c5.6,5.86,11,11.89,16.56,17.84.38.4.77.79,1.17,1.16,2.58,2.43,3.33,2.58,6.33.77,7.7-4.63,15.93-5.33,24.44-3.12,7,1.81,13.91,4,20.88,5.91,3.17.88,6.39,1.57,9.58,2.38.83.21,1.62.55,2.7.93l-3.91,8.18,42.45,19.07c-1.35,4.05-2.61,7.85-3.93,11.8l45.69,19.86c-1,4.72-3.15,8.9-4.79,13.25s-3.36,8.56-5.12,13l8.4,4.6L983.8,648.54l4.63,2.24,4.63,2.25c-1.21,2.69-2.31,5.29-3.52,7.84-7.28,15.25-14.65,30.45-21.82,45.75a12.71,12.71,0,0,1-7.49,6.91c-2.06.76-4.12,1.49-6.18,2.24-3.79,1.38-6,3.3-5.63,9.19.43,7.32.94,14.64,1.27,22,.27,5.8.54,11.62.42,17.42-.31,14.45-1.21,28.85-3,43.22A386.32,386.32,0,0,1,929,885.87c-1,3-2.08,6-3.23,9-2,5.27-2.88,6.07-9,6.51-3.91.28-7.88-.19-11.82-.31-1.43,0-2.86,0-4.28,0H217c-7.38,0-7.94-.33-10.47-7.34a394.41,394.41,0,0,1-17.87-66.26,290.57,290.57,0,0,1-4-32.22,19,19,0,0,0-.65-3.88c-.83-3.11-2.64-5.25-6-5.72a16.5,16.5,0,0,0-2-.32c-5.92-.11-10.56-2.93-14.23-7.25-7.86-9.28-15.53-18.72-23.27-28.1-.34-.42-.66-.86-1.15-1.5l7.9-4.68-23.55-40,9.93-7.41-26-43,23.51-15.47-4.33-8.51,38.67-26c-1.67-3-3.29-5.93-5-9a19,19,0,0,1,1.9-1.37c16.37-9.15,32.78-18.22,49.09-27.48a13.32,13.32,0,0,1,11-1.3c2.73.8,5.58,1.17,8.36,1.81a5.9,5.9,0,0,0,6.79-2.76c2.12-3.21,4.21-6.42,6.32-9.63l17.14-26.15-7.53-9c-9.46,8.82-17.76,18.58-27.63,27.55,1.09-13.27,2-26-2.49-38.89-1.8,2.14-3.39,4-5,5.91s-3.29,4.11-5,6.08a2.67,2.67,0,0,1-1.89.9c-1.05-.1-1.2-1.08-1.19-2,0-3.29,0-6.59,0-9.89,0-8.24,0-16.48,0-24.72,0-1.73-.28-3-2.65-3.41-2.61,3.49-5.33,7.13-8,10.67-2-.53-1.93-1.83-1.63-3a43.37,43.37,0,0,0,1-12.74,27.42,27.42,0,0,0-3.42-12.76l-4.58,3.6c-2.86-9.36-5.41-18.52-8.11-28.33l28.16,8.2-3.56,4.49c3.32,2.26,7,3,10.8,3.46a44.27,44.27,0,0,0,12.74-.52,7.18,7.18,0,0,1,1.31-.13c1,0,2.38-.84,2.89.61s-1,1.72-1.81,2.37c-2.44,2-4.92,3.95-7.81,6.25,12.94,4.78,25.86,4.85,39.65,3.94l-12.81,12c12.53,4.58,25,3.68,37.64,3.08L261,507.45l8.32,7.54C319.87,454.18,382.66,412.17,458.94,389.15ZM565.53,803.71h362c1,0,2,0,3,0,4-.17,5.68-1.58,5.95-5.56.79-11.57,1.64-23.16,2-34.75.24-7.66-.25-15.35-.6-23-.26-5.79-.79-11.57-1.27-17.35a347.8,347.8,0,0,0-6.63-42.81,370.34,370.34,0,0,0-28.64-84.89,352.15,352.15,0,0,0-30.08-51,371.42,371.42,0,0,0-52.11-58.7,420.24,420.24,0,0,0-37.42-30.58,376.21,376.21,0,0,0-67.48-39.48,343,343,0,0,0-67.94-22.39,359.52,359.52,0,0,0-72.45-7.84c-4.06,0-8.13.09-12.18.29-8.21.4-16.44.63-24.61,1.45-9.58,1-19.14,2.32-28.66,3.81A398.85,398.85,0,0,0,447,405.72a362.79,362.79,0,0,0-62.76,27,344.46,344.46,0,0,0-51.05,34.24A356.74,356.74,0,0,0,297,500.87a347.44,347.44,0,0,0-22.46,26.63,424.06,424.06,0,0,0-46.46,77.08,346.48,346.48,0,0,0-24.18,68.77,340.88,340.88,0,0,0-9.4,77.47c0,2.62-.37,5.24-.37,7.87s.35,5,.37,7.53a295.38,295.38,0,0,0,2,31.47c.69,6,.71,6,6.78,6ZM996.24,575.17l-77.45-33.44-.38.7c3.93,2.89,7.9,5.74,11.79,8.7s8.21,5.57,11.63,9.38c-2.72.47-5.13-.53-7.61-1s-5.19-1.12-7.78-1.69l-.26.64L971.89,587l-5.13,1.88,14.7,11.76-5.3,11.3,6,1.91v24.51l.76.14c4-10.81,7.89-21.62,11.87-32.51l-8.46-4.65C989.67,592.51,992.91,584,996.24,575.17Zm-866.39,56.5,4.38,8.59L111,656,155.2,728.6a6.37,6.37,0,0,0-.35-3.26q-3.9-11.73-7.8-23.44c-.31-.94-1-1.92.07-3.24l10.72,11.86.63-.39c-6.79-16.21-13.57-32.42-20.52-49l4.89.62c-1.76-6.22-3.44-12.15-5.12-18.1l10.88-6-4-5.21,14.95-20.23-.56-.55ZM616.31,873.43c.43-.4.7-.59.91-.84,1.91-2.29,1.83-5.12,1.87-7.81.06-3.61-.33-7.22-.36-10.83,0-3.24,1.09-4.31,4.38-4.35,4.93-.05,9.86,0,14.8,0,3.2,0,4.58,1.28,4.92,4.46a14.78,14.78,0,0,1-.05,2.3c-.18,4.92-.37,9.85-.52,14.78a2.42,2.42,0,0,0,2.24,2.75c1.48.21,2-.94,2.22-2a38.36,38.36,0,0,0,1.37-8c0-10.53-.22-21.07-.39-31.6a23.89,23.89,0,0,0-.23-3.28c-.92-6.53-4-11.75-10.21-14.26a16.62,16.62,0,0,0-17.87,2.93c-4.33,3.66-5.9,8.62-5.94,14.08-.08,12,0,24-.06,35.93A6.53,6.53,0,0,0,616.31,873.43Zm160-39.82c-5.17-.56-5.27-.47-5.28,4.27,0,4.29-.08,8.57,0,12.86.1,4,.52,7.89,2.6,11.39a17,17,0,0,0,19.66,7.52c2.27-.67,4.52-1.41,7-2.18.17,1.61.39,2.8.4,4A10.69,10.69,0,0,1,793.74,882a12.25,12.25,0,0,1-10.77-.51c-2-1-4-1.76-6.22-1.18,1,4.83,4.91,8,10.29,8.44,8.49.75,18.83-5.59,18.91-17.11.08-11.09,0-22.19,0-33.28a5.52,5.52,0,0,0-2.22-4.82c-2.53,2.59-2.55,2.58-2.62,4.77-.16,4.49-.29,9-.46,13.46a23.78,23.78,0,0,1-.26,3.28c-1.08,6.31-5.66,10.33-11.72,10.32a12.07,12.07,0,0,1-11.88-10.28,38.67,38.67,0,0,1-.5-5.88C776.25,844.1,776.3,839,776.3,833.61ZM551.5,855.14c7.93,0,15.6,0,23.27,0,4.23,0,5.9-1.92,5.53-6.17-.85-9.85-11.08-20.24-24.6-14.86a13.07,13.07,0,0,0-8.55,10,51.78,51.78,0,0,0-.26,18.9,11.27,11.27,0,0,0,3.11,6c3.86,4.06,8.78,5.35,14.06,5.1,5.44-.26,9.89-2.62,12.5-7.74.46-.92,1.06-2,0-2.62a5.22,5.22,0,0,0-3-.55c-.66.06-1.27.79-1.87,1.26-.77.61-1.47,1.32-2.27,1.89a11.08,11.08,0,0,1-12.93.56C552.08,864.36,550.55,860.46,551.5,855.14Zm207.65,4.62c0-3.29,0-6.59,0-9.89-.13-8.84-5.77-15.47-14.4-17-9.35-1.64-18.61,4.76-20,13.85a41,41,0,0,0-.18,11.76c1.5,10.81,10.19,18,21.75,14.93a16.72,16.72,0,0,1,8.74-.07c3.22.84,4,.26,4-3C759.21,866.8,759.15,863.28,759.15,859.76Zm-81.33-45.25v24.14c0,9.67-.05,19.34,0,29a15.67,15.67,0,0,0,1.09,5.07,2.42,2.42,0,0,0,2.1,1c.61-.11,1.29-1,1.53-1.77a9.41,9.41,0,0,0,.08-2.61c.14-6.91.17-13.82.48-20.71a11.53,11.53,0,0,1,10.54-10.81A11.3,11.3,0,0,1,706.05,846a25.54,25.54,0,0,1,1,6.45c.14,5.27.19,10.55,0,15.82-.1,2.68,1,4.3,3.6,5.73.63-1.27,1.51-2.34,1.66-3.5a54.6,54.6,0,0,0,.48-8.18c-.09-4.71-.28-9.42-.67-14.12-.68-8.28-5.84-13.85-13.59-15.08a23.11,23.11,0,0,0-8.77.6c-2.31.52-4.61,1.11-7.27,1.75v-4c0-4.84.07-9.67,0-14.51C682.36,813.88,681.33,813.31,677.82,814.51Zm171.38,58.8c2.73-.57,3.69-2,3.74-4.29,0-2.84.41-5.67.49-8.51A49.8,49.8,0,0,0,852,845.23c-2-7.14-9-12.59-16.19-12.78s-14.39,4.94-16.79,12c-2.63,7.72-1.47,15.12,2.21,22.18a13.18,13.18,0,0,0,7.16,6,17.64,17.64,0,0,0,13.75-.13C844.67,871.47,847.18,870.85,849.2,873.31ZM256.45,854.9c-1.17,1.8-2.16,3.21-3,4.69-.6,1-1,2.22-1.54,3.27-2.54,4.53-6.9,6.88-11.78,6a11,11,0,0,1-9.3-9.06,29.8,29.8,0,0,1-.6-6.19c0-8.24-.15-16.48.16-24.71.2-5.45,3.55-9,8.9-9.89,6-1,10.88,1,13.14,5.75a24.66,24.66,0,0,1,1.62,5.64c.31,1.46,1,2.16,2.46,1.95.64-.09,1.25-.32,2.3-.59a34.2,34.2,0,0,0-.67-5.79c-3.24-11-15.12-16.95-26.85-9a11.08,11.08,0,0,0-5.19,9.09c-.2,5.24-.93,10.48-1,15.72-.06,6,.27,12.06.65,18.07a13.64,13.64,0,0,0,2.29,7.43c3.71,5.08,8.94,7.12,14.9,6.78,6.3-.36,11.31-3.32,14.09-9.31C258.5,861.66,258.92,858.55,256.45,854.9Zm49.48,5.44h0c0-3.51,0-7,0-10.53a18.34,18.34,0,0,0-.46-2.91c-1.45-7.84-7.34-13.3-15.62-14.1a17,17,0,0,0-17,10c-2.31,5.24-2.32,10.72-1.41,16.13,2,11.87,11.21,17.41,22.77,13.89a11,11,0,0,1,7.64.56c3,1.19,4,.43,4.09-2.82S305.93,863.74,305.93,860.34Zm179,13.13a12.33,12.33,0,0,0,1.67-6.6c-.21-6.24-.29-12.49-.48-18.72a14,14,0,0,0-2.9-8.58c-4.34-5.39-10.13-7.75-16.9-6.74-6.44,1-10.85,4.94-13.4,10.92-2.15,5-1.84,10.23-.81,15.45a18.83,18.83,0,0,0,4.74,9.93c4.22,4.31,9.49,5.27,15.17,4.14,4.15-.82,8.22-2.08,12.26.31C484.37,873.62,484.51,873.55,485,873.47Zm-94.51.64a23.39,23.39,0,0,0,.53-3.23c0-7,.19-14.06,0-21.08-.32-10.62-8.83-17.69-17.82-17.09-8.13.54-14.79,4.9-15.91,13.68a49.15,49.15,0,0,0,.57,16A12.86,12.86,0,0,0,365,872a16.5,16.5,0,0,0,12.12,1.28C381.56,871.91,385.89,871,390.44,874.11Zm482.79-34.25c0,7-.06,13.68,0,20.38a19.49,19.49,0,0,0,.8,5.49c1.51,4.75,5,7.36,9.81,8.16s8.3-1.28,10.89-5.16c.71-1.07,1.28-2.23,2.08-3.65a12,12,0,0,0-1.62.17c-2.73.81-5.46,1.64-8.17,2.49-3.21,1-4.87.45-6.65-2.4a13.4,13.4,0,0,1-1.89-7.22c0-5.27,0-10.55,0-15.82,0-3.74,1.22-4.92,4.92-5s7.46,0,11.13,0c1.28-3.17,1.07-3.79-1.8-4.81a9.7,9.7,0,0,0-2.89-.45c-2.3-.06-4.61,0-6.92,0-4-.09-4.44-.59-4.44-4.64,0-4.37,0-8.74,0-13-3.67-1.39-5.24-.57-5.42,2.82a87,87,0,0,0,0,10.21,4.07,4.07,0,0,1-2.58,4.39c-1.86.95-3.62,2.1-5.77,3.36Zm-342.17,33.8a7.63,7.63,0,0,0,2.56-6.1c0-5.71.07-11.42,0-17.12a19,19,0,0,0-2.52-9.1,17.7,17.7,0,0,0-18.48-8.49c-7.3,1.33-12.72,6.75-13.38,14.26-.61,7-.54,14-.73,21-.06,2.2,1.25,3.75,2.54,5.46a8.34,8.34,0,0,0,3-7,80.76,80.76,0,0,1-.2-8.23,73,73,0,0,1,.9-11.76,10.26,10.26,0,0,1,8.23-8.48c4.85-1,9.18.14,12.32,4.24a15,15,0,0,1,2.91,9.25c0,5.49.16,11,.16,16.47A7.15,7.15,0,0,0,531.06,873.66Zm-89.44-40.25c-4.26-.45-5.38.14-6.87,3.57-2.5,5.72-4.88,11.49-7.38,17.21-1.47,3.36-3.08,6.67-4.94,10.68-2.05-4.65-3.79-8.53-5.48-12.43-2.35-5.42-4.58-10.89-7-16.27-1.36-3-2.65-3.41-6.39-2.52.95,2.24,1.87,4.44,2.82,6.63,3.68,8.43,7.34,16.86,11.07,25.27a27.3,27.3,0,0,0,5.66,8c1.88-3.26,3.8-6.07,5.19-9.12,3.2-7,6.15-14,9.18-21.08C438.83,840.12,440.16,836.89,441.62,833.41Zm-98.39,8.44a4.35,4.35,0,0,0,.22-1.2c-.8-4.38-4.91-7.75-10-7.9-7.25-.23-14.84,3.6-15.41,13.57-.43,7.54-.22,15.12-.28,22.68a9.52,9.52,0,0,0,.06,2.62,3.28,3.28,0,0,0,1.34,1.91,1.59,1.59,0,0,0,2.37-1,24.67,24.67,0,0,0,1.43-6c.19-6.26.07-12.52.08-18.78a18.17,18.17,0,0,1,.15-3c.72-4.19,3.72-6.53,7.95-6.09a28.27,28.27,0,0,1,4.45,1.08C338.14,840.44,340.63,841.14,343.23,841.85Zm319.82,31.79a5.54,5.54,0,0,0,2.28-4.4q-.08-25.34,0-50.68a4.93,4.93,0,0,0-2.21-4.29,6,6,0,0,0-2.22,4.76q0,24.86-.22,49.7A5.29,5.29,0,0,0,663.05,873.64Zm-29.4-507.91c-.52,4.41,3.47,9.21,9,9.18a9.38,9.38,0,0,0,9-9.19c0-4.73-4.33-9.2-9-9.26A9,9,0,0,0,633.65,365.73ZM455,363.94c-.51,5.74,4.5,9.14,9,9.15a9.26,9.26,0,0,0,9.06-9,9.11,9.11,0,0,0-9.19-9.09C459,354.92,454.35,359.32,455,363.94ZM156.73,749.11l7-8.34-.46-.49-19.75,11.24c5.73,6.84,10.86,13.65,16.84,19.81a7.24,7.24,0,0,0-.72-2.81c-1.33-3.12-2.71-6.22-4-9.35-1-2.38-1-2.4,1.07-4.07,1.1-.9,2.25-1.75,3.33-2.68a25.27,25.27,0,0,0,1.76-1.86ZM888.6,508.91l-.35.59,14.19,8.59c-.75,3-1.48,6-2.26,9.17l5.15-1.29c-.41,3.8-.77,7.19-1.13,10.57l.67.22c3.22-6.75,6.43-13.5,9.83-20.62Zm86.57,169.78.82.2c3.75-8.19,7.51-16.37,11.42-24.88l-17.28-8.12-.3.52,8.06,7.29L971.43,668l.38.23c1.86-1.6,3.73-3.2,6-5.2C976.88,668.66,976,673.67,975.17,678.69ZM188.42,583.36l-.45-.7L163.6,596.73c3.07,5.45,6,10.6,8.89,15.75l.7-.28c-.63-3.23-1.27-6.47-1.92-9.78l13.41-7.74-.2-.47-7.42.76-.23-.65ZM142.85,717.45l-8.94-16.83-7.73,5.52c5.68,8.93,10.8,17.82,16.69,26.23-1.22-5.55-3.72-10.65-5-16.43ZM927.23,531.38l-.32.6c4,3.54,8.78,6.17,13,10.13-1.14.26-1.76.35-2.36.54s-1.26.51-2.45,1L951.76,552l3.23-8.94Z"/><path class="cls-1" d="M654.19,230.4c2.6-6.62,4.09-7.7,11-7.6,10.1.14,20.19.51,30.28.59,3.81,0,6.27,1.55,7.53,5.11a28.07,28.07,0,0,0,1.21,2.56h10.18c5.4,0,7,1.46,6.93,6.74-.15,12.51-.45,25-.61,37.52-.09,7.26.06,14.51,0,21.76q-.23,16.47-.67,32.92a13.71,13.71,0,0,1-3.37,8.74c-5.07,5.9-10.21,11.75-15.33,17.61-1.66,1.9-3.34,3.77-5,5.67a13,13,0,0,1-10.84,4.52c-3.49-.13-7,0-10.84,0-.4-2.07-.77-4.07-1.19-6.06-2.76-13.14-10.47-21.91-23.52-25.16-10.81-2.68-20.59.12-28.89,7.7a29.71,29.71,0,0,0-8.64,14.12c-.27.95-.61,1.87-.91,2.81-1.53,4.7-2.54,5.58-7.55,5.61-5.48,0-11-.29-16.45-.32q-38.57-.2-77.13-.31c-2.85,0-5.7-.12-8.55-.21-4-.13-6-2.57-7.18-6.13a71,71,0,0,0-3.23-8.94c-10.1-20.91-38.86-22.85-52.17-4.73A36.57,36.57,0,0,0,433.39,357c-1.29,4.67-3.38,7.06-9.21,7-14.05-.23-28.12-.23-42.17-.34a13.72,13.72,0,0,1-3.26-.39,4.29,4.29,0,0,1-3.55-4.51c0-8.57-.17-17.15.31-25.7a12.39,12.39,0,0,1,6.58-10.35c14-7.94,23.56-19.77,29.64-34.53a84,84,0,0,0,3.08-8.32c1.65-5.57,4.84-8.43,13.14-8.14,11.51.41,23,.23,34.55.28a8.82,8.82,0,0,0,1.47-.26,24.89,24.89,0,0,0-.33-3.21c-.6-2.55-2.06-4.38-4.75-4.89a38.7,38.7,0,0,0-4.55-.55c-1.43-.09-2.86,0-4.29,0-16.59-.1-33.17-.16-49.76-.31a24.07,24.07,0,0,1-12-3,13.5,13.5,0,0,1-6.66-14.17c2.12-12.46,9.66-20.66,20.73-25.8a90.14,90.14,0,0,1,36-8.14c14.05-.34,28.12-.31,42.18-.32,11.75,0,23.5.17,35.25.27l42.5.37q15.65.15,31.3.29,14.65.17,29.31.38c3.18,0,6.36.28,9.54.26,4.88,0,7.94,2.68,10.18,6.58,1.37,2.37,2.44,4.91,3.72,7.33a6.51,6.51,0,0,0,6.49,3.64C650.68,230.34,652.53,230.4,654.19,230.4Zm18.27,80.74c4.84,0,9.67,0,14.5,0,3.21,0,4.31-1,4.68-4.18a19.76,19.76,0,0,0,0-2.31c0-6.26,0-12.52,0-18.78,0-2,.25-3.95.16-5.92-.12-2.57-1.05-3.5-3.58-3.87a20.76,20.76,0,0,0-3-.16c-4.73,0-9.45,0-14.18,0-6.15,0-12.3.05-18.45,0-10.2-.13-20.4-.39-30.6-.47-3,0-4.15,1.23-4.17,4.26q-.09,12.84-.08,25.68c0,3.94,1.14,5.09,5.11,5.12,2.63,0,5.26-.23,7.89-.26,5.16,0,10.33-.13,15.49,0s10.17.68,15.27.88C665.21,311.25,668.84,311.14,672.46,311.14Zm-259-6.44h52.38a4.84,4.84,0,0,0,.31-1.12c0-6.14.06-12.29,0-18.44a3.93,3.93,0,0,0-3.32-3.87,36.67,36.67,0,0,0-5.23-.45c-9.76,0-19.52,0-29.28-.05-3,0-5,1.1-6.19,3.87-2.69,6.12-5.49,12.19-8.23,18.29A12.55,12.55,0,0,0,413.43,304.7Zm54.24-66.61h-.19c0-2,.06-4,0-5.93a5.29,5.29,0,0,0-5.65-5.4c-4.05.06-8.1.14-12.15.38-7.09.4-14.2.77-21.28,1.45-9.21.9-13.47,8.83-14.06,16.12a4.16,4.16,0,0,0,3.31,4.66,12.65,12.65,0,0,0,3.24.44q19.54.22,39.09.37a17.79,17.79,0,0,0,3.26-.27c2.84-.48,3.4-.91,3.79-3.66S467.46,240.81,467.67,238.09Zm93,72.58h-.22c0,6.58,0,13.17,0,19.76,0,4.27-.35,8.53-.38,12.8a73,73,0,0,0,.46,8.49c.31,2.7,2.1,4.29,4.69,4.85a20.7,20.7,0,0,0,4.23.41c8.13,0,16.26-.16,24.38.07,6.64.19,9.2-2.08,9.1-9.22-.13-9.44,0-18.89,0-28.33,0-1-.25-2.23.24-2.89a5.55,5.55,0,0,0,.84-3.73c0-9.55,0-19.1,0-28.65a25.28,25.28,0,0,0-.6-5.2,5.82,5.82,0,0,0-5.84-4.82c-1.31-.07-2.63-.09-3.94-.1-8.89-.06-17.78-.16-26.67-.16a5.39,5.39,0,0,0-5.27,3.3,12.07,12.07,0,0,0-.92,4.44C560.64,291.36,560.67,301,560.67,310.67Z"/><path class="cls-1" d="M288,418.21c-10.1,0-20.2,0-30.3,0-4.77,0-9.39-.64-13.48-3.48a13.45,13.45,0,0,1-5.49-7.56c-2.84-10.17,2-18.71,12.32-20.86a26.75,26.75,0,0,1,4.88-.57,4.42,4.42,0,0,0,4.24-2.56c.4-.78.81-1.56,1.18-2.36a15.41,15.41,0,0,1,11.77-9.05,16.76,16.76,0,0,0,9.49-5.35,27,27,0,0,1,37.21-1.92,25.16,25.16,0,0,1,8.95,16.37,14.22,14.22,0,0,0,4.73,9.07,15.92,15.92,0,0,1,5.3,12.62c-.13,7.6-6.26,15.44-15.24,15.4-11.85-.07-23.71,0-35.56,0Z"/><path class="cls-1" d="M100.06,521a7.61,7.61,0,0,1-.14-1.26c.76-4.78.76-4.78-3.86-6.58-.92-.35-1.85-.68-2.75-1.08a7.76,7.76,0,0,1-5-7.11l6.44.65,6.28.68c0-3.17,2.85-4.18,4.37-6.42L108,502C106.5,508.68,106.18,515.73,100.06,521Z"/><path class="cls-1" d="M977.14,437.21c.78.77.57,1.55-.18,2.45-1.82,2.19-3.42,4.56-5.34,6.63a6,6,0,0,0-1.51,5.71c.3,1.57.47,3.15.79,5.45-1.21-.58-2-.7-2.35-1.15-4-4.74-8-9.54-11.89-14.29,1.48-1.92,1.48-1.92,6,1.13C966.7,439.63,971,436.22,977.14,437.21Z"/><path class="cls-1" d="M119.71,501.32c-2.15-7.18-4-13.56-6-19.93-.39-1.29.19-1.83,1.64-2,2.45,2.87,5,5.84,7.74,9,1.43-2.62,1-5.85,4-7.83.59.56,1.49,1.06,1.82,1.81a4.54,4.54,0,0,1-.18,4.4c-1.72,2.79-3.39,5.62-5.11,8.41C122.48,497,121.29,498.84,119.71,501.32Z"/><path class="cls-1" d="M964.41,467.18l21.11,5.39c.52,1.5,0,2.14-1.18,2.33-2.38.36-4.77.7-7.15,1.07-1,.16-2.06.4-3.41.66l4.89,6.46-1.52,2c-2.68-.79-4.8-2-6-4.63C969.08,476.19,966.88,472,964.41,467.18Z"/><path class="cls-1" d="M147.23,441.77l-1.3,6,11.39,9.79-.14.65-16.94,1.09c1.63-6.18,3-12,5.31-17.48C145.61,441.64,146.32,441.77,147.23,441.77Z"/><path class="cls-1" d="M1000.76,521.21c-1.06-1.43-2.08-2.79-3.19-4.26l-16.29,5.4c3-5.69,5.58-10.66,8.41-16,1.18,1.24,2.07,2.14,2.93,3.09,2.67,2.9,5.33,5.83,8,8.75C1001.41,519,1002.39,519.92,1000.76,521.21Z"/><path class="cls-1" d="M140.36,493c-1.06,2.19-1.8,3.73-2.66,5.53l11.66,7.77-.14.76a41.71,41.71,0,0,1-4.3.53,12,12,0,0,1-2.89-.48c-5.82-1.26-5.82-1.27-10.23,1.79C130.85,503.61,134.74,495.94,140.36,493Z"/><path class="cls-1" d="M944.28,489.26a37.82,37.82,0,0,1,1.89-4,15.16,15.16,0,0,1,2.38-2.7c2.64-2.55,4.67-5.27,2.66-9.32,5.39,1.87,10.43,10.08,9.4,15.45l-3.15-4.83-12.41,6Z"/><path class="cls-1" d="M908.22,409.88l-1.84.58c-.61.18-1.24.34-2.16.6l3,5.54L900.76,414c.1,2.06.18,3.88.28,5.85-1.86-1.11-5.61-9.28-6.3-13.31.07-.07.16-.21.23-.21,2.94.32,5.76-.3,8.63-.8C905.81,405.17,907.32,406.8,908.22,409.88Z"/><path class="cls-1" d="M100.49,579.26l2.42,4.21,2.91-6,1.39,6.11,5.17-3c-.77,2.83-6.36,10.38-8.64,11.83a31.91,31.91,0,0,0-1.8-3.72c-.7-1.09-1.76-2-2.52-3C97.68,583.18,98,581.32,100.49,579.26Z"/><path class="cls-1" d="M933.85,429.18l-4.73,3.63,5.36,3.94c-1.36,2-3.25,0-4.8,1.05.32.94.64,1.9,1,3-3.84-1.11-8.47-7.42-9-12C924.69,428,931.25,428.11,933.85,429.18Z"/><path class="cls-1" d="M102.9,547.26l5.7,2.07c.33-2.36.62-4.48,1-7.36l2.83,4.47c.93-.7,1.76-1.31,2.7-2,.19,2.31-2.86,9.49-6.16,14.67l-6.59-11.45Z"/><path class="cls-1" d="M131.9,560v4.08l4.77.61a39.11,39.11,0,0,1-5.91,4.05c-1.83,1.2-3.71,2.32-6,3.76l-2-8.93Z"/><path class="cls-1" d="M901.81,449.15V434.67l8,2.67c-.51,3.45-1,6.65-1.51,10.23L904.62,445Z"/><path class="cls-1" d="M397.68,644.15c.28,8.57.42,16.34.81,24.1.5,9.73,1,19.46,1.88,29.16.49,5.52,2,10.89,6.39,14.73a19.7,19.7,0,0,0,5.8,3.62c11.35,4.27,23,1.31,30.59-8.1,5.87-7.24,11.27-14.85,16.89-22.29,1.32-1.75,2.6-3.55,4.08-5.16a3.23,3.23,0,0,1,3.86-1.06c1.33.63,1.69,1.91,1.69,3.32,0,10.68,5.52,18.17,14,23.9a114,114,0,0,0,37.59,16.16,218.18,218.18,0,0,0,37.39,5.34c8.09.52,16.18,1,24.29,1.29,7.89.28,15.81.57,23.7.35a529.19,529.19,0,0,0,62.84-5.4,610.06,610.06,0,0,0,79-17.36,43.64,43.64,0,0,0,4.33-1.54,20.8,20.8,0,0,0,2.53-1.56c-15.24-3.91-30-7.23-44.71-10.82s-29.9-5.55-45.42-7.89c2-4.1,3.6-7.81,5.49-11.37a16.33,16.33,0,0,1,11.29-8.35c13.28-3.1,26-7.82,38.78-12.56a23.71,23.71,0,0,0,3.23-1.61,6.45,6.45,0,0,0,3.5-5.94c-.08-5.69-.34-11.39-.52-17.09-.08-2.41-.18-4.82-.27-7.23-.23-6-.42-12-.7-18.07-.34-7.44-.77-14.88-1.14-22.31-.29-6-.53-12-.83-18-.36-7-.78-14-1.14-21-.3-5.81-.53-11.61-.84-17.41q-.53-9.35-1.14-18.68c-.41-6.45-.82-12.89-1.29-19.33a13.48,13.48,0,0,0-.8-3.83,19.33,19.33,0,0,1-.57-12.88,61.08,61.08,0,0,1,6.91-14.59c1.5,3.32,2.86,6.26,4.15,9.24,5.53,12.8,10.7,25.72,13.53,39.45.27,1.33.79,2.58-1.09,3.41L733.47,501c.19,3,.35,5.43.49,7.84.49,8.09.94,16.18,1.46,24.27.54,8.3,1.21,16.59,1.72,24.89.38,6.34.6,12.69.91,19,.37,7.32.8,14.65,1.14,22,.26,5.47.8,11,.53,16.42C739.2,626,738.63,636.65,736,647a69.87,69.87,0,0,1-9.42,20.56c-.82,1.27-1.56,2.6-2.5,4.18l48,11.19c0-1.83.07-3.52,0-5.2-.41-8-.83-16-1.31-23.93q-.94-16.06-2-32.11c-.42-6.67-.88-13.33-1.31-20q-1-15.57-2-31.13c-.43-6.66-.72-13.34-1.35-20-.49-5.09-.22-10.27-2.36-15.18-1.34-3.08-.85-6.49.05-9.7,1.36-4.86,4-9.12,6.46-14.14,1.68,3.15,3.21,5.77,4.52,8.5a195,195,0,0,1,13.74,38.68c.31,1.27,1.56,3-1.11,3.92l-7.81-6.16c0,4.41-.15,8.42,0,12.41.28,5.68.8,11.35,1.25,17,.55,6.87,1.16,13.73,1.69,20.6.35,4.47.6,9,.91,13.44.63,8.84,1.29,17.68,1.9,26.53.5,7.21.94,14.42,1.44,21.63.27,3.93.4,7.88,1,11.76.74,4.8,2.61,6.47,7.27,7.05,10.88,1.37,21.76,2.64,32.63,4,7.28.92,14.56,1.92,21.83,2.94,1.84.26,3.64.73,5.71,1.15a24.14,24.14,0,0,1-1,2.5c-2.59,4.84-5.23,9.64-7.81,14.48a5.62,5.62,0,0,1-5.21,3.35c-5.15.14-10.29.5-15.44.59-10.53.2-21.07.26-31.61.41-3.93.06-5.23,1.07-6.24,5-2.46,9.44-4.85,18.9-7.26,28.35a9.8,9.8,0,0,1-4.39,6.29c-.55-4.21-.19-8.11-.26-12-.06-4.06,0-8.13,0-12.2V719.54c-1.43.34-2.56.58-3.68.88-20,5.42-40,11.07-60,16.22a514,514,0,0,1-62,12c-10.1,1.3-20.26,2.09-30.41,3a373.73,373.73,0,0,1-39.45,1.3c-22.44-.42-44.61-2.9-66.26-9.2A141.24,141.24,0,0,1,482.36,731a42.88,42.88,0,0,1-18.85-21.72c-.77-1.9-1.71-3.73-2.78-6-2.26,3.73-4.24,7-6.24,10.27-3.84,6.27-7.59,12.61-12.56,18.08-14.26,15.68-38.49,11.63-47.4-5.39a46.08,46.08,0,0,1-4.61-16c-1-8.25-1.6-16.56-2.2-24.85-.53-7.42-.87-14.86-1.2-22.3-.16-3.62-.13-7.25-.13-10.87a5.4,5.4,0,0,1,3.24-5.31C392.11,645.78,394.75,645.11,397.68,644.15Z"/><path class="cls-1" d="M420.05,621.75c-5.38,4.61-10.53,9.18-15.86,13.53a68.89,68.89,0,0,1-20.94,12.2c-.51.17-1,.3-1.57.43-.08,0-.2-.08-.66-.27l32.72-32.73c-1.86-3.13-3.7-6.08-5.4-9.12a38.68,38.68,0,0,1-4.91-24.67c.48-3.58.46-7.23,1-10.79a21.21,21.21,0,0,1,2.13-6.81,7,7,0,0,1,9-3.36,39.59,39.59,0,0,1,8.45,4.94,83.75,83.75,0,0,1,8.17,7.13c2.61,2.49,5,5.18,7.77,8l6.67-7.51c5.52-6.24,10.86-12.65,16.63-18.65,2.45-2.55,5.77-4.28,8.75-6.3a5.87,5.87,0,0,1,2.17-.73c4-.78,6.53.72,7.12,4.76,1.31,9,1.21,17.94-2.59,26.45a58,58,0,0,1-4.28,7.76c-3.56,5.54-7.29,11-10.91,16.47a33.07,33.07,0,0,0-2.05,3.74,4.32,4.32,0,0,0,.59,4.88c8.07,10.52,16,21.19,24.15,31.62a62.24,62.24,0,0,0,8.79,8.84c5.34,4.52,11.61,5.48,18.26,3.55a53.71,53.71,0,0,0,8-3.06c3.9-1.85,6-4.84,5.82-9.41-.41-10.3-.6-20.6-.93-30.9-.17-5.59-.41-11.17-.65-16.75-.41-10-.87-19.92-1.27-29.88-.27-6.58-.44-13.15-.71-19.72-.33-8.1-.73-16.19-1.07-24.29-.11-2.63-.15-5.26-.23-7.89-.22-7-.39-14-.68-21a255.55,255.55,0,0,0-3.5-33.92A64.83,64.83,0,0,1,517,442.56a30.18,30.18,0,0,1,4.55-13.75c1.09,3.37,2.36,6.69,3.23,10.12a199.15,199.15,0,0,1,5.55,31c.8,8.61,1.44,17.24,2,25.87.55,8.41,1,16.83,1.33,25.25.49,11.17.89,22.34,1.33,33.51.22,5.59.39,11.17.67,16.75.38,7.55.76,15.1,1.32,22.63a35.3,35.3,0,0,0,1.46,7.39c2.42,8.07,7.81,12,16.3,12.19,10.38.26,20.24-2,29.79-5.91a87.64,87.64,0,0,0,16.71-9.13c4.66-3.22,4.51-5.77-.61-8.26-7-3.39-14.27-5.63-22.14-5.45a75.29,75.29,0,0,1-8.5,0c-6.32-.57-11-4.68-11.82-11-1.59-12,1.74-22.34,11.13-30.42,5.4-4.65,11.36-4.7,17.55-2.17,7.19,2.94,12.35,8.29,16.31,14.78,10.12,16.59,11.47,33.86,2.92,51.41-5,10.3-13.69,17-24,21.49a62.32,62.32,0,0,1-23.66,4.95c-4.3.1-8.66-1.16-13-1.94-2.77-.5-5.5-1.25-8.6-2-.21,1.28-.4,2.21-.51,3.14-.52,4.34-.7,8.76-1.61,13-1.85,8.72-5.31,16.75-11.74,23.17-8.88,8.84-21.86,9.53-31.2,1.18a120.7,120.7,0,0,1-13.5-14.79c-8.89-11.14-17.88-22.23-25.56-34.27a20.48,20.48,0,0,0-1.7-2.05c-1,.6-1.82,1.09-2.64,1.61-3.9,2.49-4.16,3.59-2,7.8,1.72,3.3,3.53,6.57,5.05,10A36.88,36.88,0,0,1,455,653.92c0,9-3.45,16.63-9.46,23.18s-13.81,9.95-22.36,11.71a17.24,17.24,0,0,1-5.91.06,8.4,8.4,0,0,1-6.46-5c-2.23-4.64-2.13-9.58-1.87-14.51.7-13.45,6.27-24.92,14.47-35.31,1.08-1.38,2.19-2.74,3.52-4.4Zm14.21,12.79c-6.15,9-12,17.31-17.65,25.75a10.22,10.22,0,0,0-1.14,3.73,3.57,3.57,0,0,0,2,4.09,10.51,10.51,0,0,0,7.28,1.32c8.76-1.57,15.9-6,21.81-12.53,1.62-1.78,1.8-3.61.51-5.35C443,646,438.78,640.54,434.26,634.54Zm20.8-34.89c.54-.72.89-1.13,1.18-1.57,4.71-7.26,9.44-14.5,14.1-21.79a27,27,0,0,0,2.73-5.21c1.16-3.25-.82-5.62-4.18-4.88a13.4,13.4,0,0,0-5.24,2.51c-6.3,5-10.7,11.81-16,17.77a3,3,0,0,0,0,4.17c1.95,2.64,3.88,5.29,5.87,7.9A7.34,7.34,0,0,0,455.06,599.65Zm-41.93-20.86a9.11,9.11,0,0,0,.39,8.75c2.73,4.6,5.25,9.32,7.87,14,.35.61.79,1.16,1.36,2,3.24-4.36,6.27-8.42,9.45-12.68-3.41-3.14-6.7-6-9.79-9.06A10.62,10.62,0,0,0,413.13,578.79Zm24.48,20.75-7.34,9.57c1.27,1.68,2.33,3.06,3.37,4.46s2,2.79,3.16,4.38c1.94-1.72,3.73-3.16,5.34-4.77,2.33-2.32,2.54-4.24.65-7C441.27,603.94,439.47,601.9,437.61,599.54Zm151.06-32.41.31-.85c-2.38-3.4-5.07-6.53-9.27-7.71s-6.67-.38-8.77,3c1,1.53,1.87,3.38,3.87,3.7C579.41,566,584.05,566.52,588.67,567.13Z"/><path class="cls-1" d="M609.71,486.47c-1-2.07-1.38-3.77-.78-5.67,2.37-7.53,4.61-15.09,7.08-22.59a12.43,12.43,0,0,1,2.93-5c2.82-2.71,5.76-2.34,8.2.73a8,8,0,0,1,1.43,2.9c2,8.19,4.34,16.32,5.84,24.61,1.22,6.75,1.56,13.67,2.06,20.53.56,7.86.9,15.74,1.27,23.61.3,6.24.46,12.48.75,18.72.32,6.78.72,13.55,1.06,20.33.12,2.52.14,5,.23,7.56.22,6.57.29,13.15.72,19.71.67,10.47.57,21,3.19,31.28a22.28,22.28,0,0,0,3.39,7.39c2.79,3.89,7.17,4.84,11.69,4.93a73.91,73.91,0,0,0,27-4.83,87.41,87.41,0,0,0,19.74-10.39c4.78-3.32,4.62-5.9-.6-8.55-5.71-2.9-11.66-5.16-18.14-5.42-3.06-.12-6.14.2-9.21.17a16,16,0,0,1-10.92-3.86,13.42,13.42,0,0,1-4.44-9.58c-.71-12,3.9-21.8,12.84-29.62a12.21,12.21,0,0,1,11.07-2.75c8.29,1.78,14.47,6.64,19.26,13.37a54.44,54.44,0,0,1,10.29,29.7c.34,7.32-.19,14.45-2.89,21.26-3.12,7.89-8.76,13.75-15.59,18.65a60.28,60.28,0,0,1-42.55,11.36c-8.85-.9-14.66-5.55-17.56-14.08a94.59,94.59,0,0,1-4.83-29.69c-.08-7-.69-14-1-21-.13-2.85-.15-5.7-.23-8.56-.22-7.67-.39-15.34-.7-23-.27-6.89-.72-13.77-1.06-20.65-.31-6.35-.31-12.73-.94-19-1-9.58-2.28-19.12-3.53-28.66-.59-4.45-1.28-8.89-2.12-13.29a32,32,0,0,0-1.93-5.9c-.28-.68-1.06-1.17-1.61-1.75a7.58,7.58,0,0,0-1.48,1.58c-2.12,4.1-4.15,8.24-6.23,12.35C611,484.32,610.4,485.24,609.71,486.47ZM693.63,588.4c-1.59-3-3.25-5.08-5.53-6.42-5-2.89-8.19-3.65-12.8.95,1.49,1.42,2.74,3.5,4.5,4.11C684,588.48,688.57,588.1,693.63,588.4Z"/><path class="cls-1" d="M306.61,660.31c-3.28-4.63-5.67-9.79-9.89-13.57-5.83-5.2-6.9-11.71-5.55-18.91.64-3.44,1.63-6.82,2.53-10.53a18.76,18.76,0,0,1,2.32,1.07q11.61,7.53,23.18,15.1a3.69,3.69,0,0,1,1.07.76c.39.56,1,1.32.85,1.81a2.43,2.43,0,0,1-1.61,1.29c-2,.52-4.08.84-6.12,1.25-.43.08-.84.23-1.69.49l4.7,5.58,3.85-5.26c5.81-8,11.27-16.24,17.55-23.83,5-6,11-11.28,16.6-16.86a7.8,7.8,0,0,1,6.05-2.05c2.47.07,3.08.33,3.67,2.83a20.36,20.36,0,0,1,.6,6.16c-.89,12.26-4.89,23.6-11,34.17-4,6.93-8.49,13.57-12.9,20.25-2.59,3.94-2.68,6.11.41,9.75,5.46,6.43,9.85,13.46,11.87,21.74,2.5,10.25,2.83,20.64-1.76,30.28-7.24,15.18-19,25.13-36.12,27.37-8.3,1.09-13.79-3.17-15-12-1.95-14.08.58-27.54,6.53-40.32,2.73-5.86,6.05-11.44,9.09-17.14.47-.87,1-1.73,1.38-2.63,1.21-2.68,1.06-3.82-1-5.9-1.45-1.46-3-2.78-4.79-4.36-1.24,1.27-2.31,2.33-3.34,3.43-8.11,8.69-16.58,17-27,22.9-3.29,1.87-6.77,3.43-10.16,5.14l-.47-.64c.8-.95,1.55-2,2.42-2.85q15.15-15.37,30.34-30.71C304.37,662.92,305.41,661.65,306.61,660.31Zm9.45,65.88c2.25-.47,4.64-.8,6.93-1.47,8.67-2.51,15.71-7.59,21.77-14.14a5.17,5.17,0,0,0,.43-7.14q-7.81-10.35-15.84-20.55c-1.54-2-2.91-1.79-4.18.49-5.55,9.94-11.11,19.89-16.54,29.89a16.88,16.88,0,0,0-1.62,5.28c-.52,3.22.93,5.52,4.06,6.58A42.32,42.32,0,0,0,316.06,726.19Zm14.15-69c7.77-12.12,16.84-23.26,21.16-37.12-12.59,7.64-20.2,19.67-28.58,31.19,2.1,1.75,3.94,3.28,5.79,4.79C329,656.4,329.47,656.68,330.21,657.19Z"/><path class="cls-1" d="M380.42,496.56a43.14,43.14,0,0,1,6,16.46c1.77,11.57,3.9,23.09,5.64,34.67,1,6.92,1.88,13.89,2.37,20.87.67,9.61.9,19.26,1.39,28.88.35,7,.86,14,1.22,21,.23,4.49.46,9-2,13.13a16.09,16.09,0,0,1-9.27,7.34c-.19-2.27-.44-4.32-.52-6.37-.32-7.88-.57-15.76-.89-23.65-.36-8.75-.78-17.51-1.19-26.26q-.37-8-.79-16.09A179.75,179.75,0,0,0,377,530.89c-1.17-4.55-2-9.18-2.81-13.81a17.68,17.68,0,0,1,.32-5.21A38.82,38.82,0,0,1,380.42,496.56Z"/><path class="cls-1" d="M469.7,758c1.85-3.73,3.49-6.94,5.05-10.2,1.88-3.93,3.5-4.47,7.15-2,4.84,3.21,9.66,6.46,14.39,9.83a6.16,6.16,0,0,1,2.26,8.1c-2.12,4.56-4.48,9-6.94,13.41-1.34,2.39-2.92,2.55-5.54.81-3.46-2.32-6.84-4.76-10.25-7.15l-6.34-4.39L460.94,781a16.3,16.3,0,0,1-1.79-.92c-5.92-4-11.85-7.94-17.74-11.95-2.43-1.66-3.07-3.16-1.93-5.83,2.11-4.93,4.4-9.8,6.8-14.6,1.21-2.41,3.06-2.84,5.53-1.48,2,1.11,3.89,2.46,5.81,3.73Z"/><path class="cls-1" d="M594.46,500.65c-4.39,7.74-8.62,15.27-12.92,22.76-1.55,2.71-3.93,3.36-6.58,1.57q-12-8.07-23.81-16.39c-2.4-1.69-2.91-4.13-1.76-7,.82-2,1.73-4,2.68-6,2.34-4.83,4.73-9.63,7.08-14.45,1.78-3.68,4-4.57,7.34-2.37,8,5.35,16,10.78,23.78,16.43C592,496.51,593.06,498.79,594.46,500.65Z"/><path class="cls-1" d="M681.57,516.31l-8.21-9.62c-.71-.83-1.47-1.62-2.14-2.5a6.08,6.08,0,0,1,0-7.86c3.78-4.51,7.73-8.87,11.88-13.6l17.74,20.06c-2.25,2.83-4.39,5.57-6.56,8.28-1.16,1.45-2.42,2.83-3.58,4.27-1.62,2-1.6,3.22.09,5.16,3.32,3.78,6.67,7.54,10,11.32.57.64,1.05,1.35,1.69,2.19l-14.79,17.64c-1.69-1.92-3.21-3.59-4.67-5.32-3.25-3.84-6.49-7.68-9.69-11.56-2.38-2.9-2.5-4.61-.27-7.6s4.78-6,7.17-9C680.62,517.7,681,517.15,681.57,516.31Z"/><path class="cls-1" d="M328.84,591.29c.91,3.32,1.71,6.25,2.52,9.19.23.84.53,1.67.72,2.53.74,3.24-.12,4.46-3.41,4.85-5.44.65-10.88,1.22-16.31,1.91-4.14.53-6.78-1-7.73-5.2-1.1-4.8-2.39-9.55-3.58-14.33a10.3,10.3,0,0,1-.1-1.63l23.39-3.16c-.74-3.33-1.41-6.39-2.11-9.44-1.36-5.89-.68-6.87,5.33-7.62l15.32-1.94c2.84-.36,4.24.34,5,3,1.4,4.72,2.72,9.47,3.87,14.25.84,3.51.15,4.6-3.54,5.17-5.08.79-10.21,1.24-15.32,1.85C331.75,590.86,330.57,591.05,328.84,591.29Z"/><path class="cls-1" d="M437.23,529.69c-2.81-3.15-5.37-6-7.91-8.88-.79-.9-1.61-1.8-2.31-2.77a4.56,4.56,0,0,1,0-5.83c3.39-4.25,7-8.34,10.7-12.74l16.18,17.63c-3.49,4.55-6.93,9-10.56,13.74,1.47,1.69,2.83,3.35,4.3,4.93,1.7,1.85,3.49,3.62,5.25,5.42,2.49,2.55,2.61,4.7.37,7.52s-4.34,5.5-6.57,8.2c-2.8,3.37-4.88,3.33-7.79.05s-5.7-6.37-8.62-9.49-3-5.71-.35-9C432.24,535.56,434.67,532.74,437.23,529.69Z"/><path class="cls-1" d="M641.74,844.3c-1.31,0-2.38,0-3.45,0-5-.12-10.08-.2-15.12-.39-2.91-.11-3.9-1.07-4-4-.12-3.59.06-7.18,0-10.77-.14-4.74,3.3-8.85,8.4-9.93A13.08,13.08,0,0,1,637.9,821a7.73,7.73,0,0,1,3.79,6.24C641.86,832.78,641.74,838.33,641.74,844.3Z"/><path class="cls-1" d="M574.18,849H552.07c.07-6.61,3.8-10.75,10.06-11.27C567.19,837.34,572.76,840.26,574.18,849Z"/><path class="cls-1" d="M729.21,853.1c.46-2.32.77-4.94,1.51-7.43A10.71,10.71,0,0,1,740.4,838c5.58-.36,10,1.84,12,6.28a22,22,0,0,1,.08,17.89c-2,4.9-6.14,6.65-11.19,6.38-7.28-.38-9.74-4.31-11.12-9A46.22,46.22,0,0,1,729.21,853.1Z"/><path class="cls-1" d="M847.6,853.7a50.65,50.65,0,0,1-.32,5.24c-1,6-5.34,9.67-11.37,9.76-6.26.09-10.88-3.47-12.1-9.38a27.59,27.59,0,0,1,0-12c1.08-4.62,3.92-7.9,8.53-9a12.11,12.11,0,0,1,12.29,3.63,10.84,10.84,0,0,1,2.71,6.9c.14,1.63,0,3.28,0,4.92Z"/><path class="cls-1" d="M276,853.66c.35-2.53.5-5,1.08-7.48,1.22-5.12,5.24-7.89,10.49-8.24,8-.54,13,5.92,13.25,12.69a27.45,27.45,0,0,1-1.4,10.4c-2.63,7.36-8.91,9.2-15.36,7a10.15,10.15,0,0,1-7.07-7.58C276.49,858.26,276.34,856,276,853.66Z"/><path class="cls-1" d="M481.32,853.44A18.52,18.52,0,0,1,478,864.89c-4,5.71-14.77,5.73-18.63-.87s-3.85-13.55-.66-20.44c2-4.25,7-5.88,11.44-5.44,7.47.72,10.15,4.67,11.12,12.67A23.06,23.06,0,0,1,481.32,853.44Z"/><path class="cls-1" d="M386,853.88c0,3.31-.1,6.55-2,9.51-3,4.57-7.32,5.75-12.3,5.25a10.7,10.7,0,0,1-9.45-7.62,21.36,21.36,0,0,1,1.92-18.57c2.93-4.92,10.28-6.2,15.86-3,3.47,2,4.94,5.19,5.58,8.87A54.47,54.47,0,0,1,386,853.88Z"/><path class="cls-1" d="M601.33,303.49c0,4.94,0,9.89,0,14.83q-.17,15.45-.43,30.91c-.07,4.08-1.76,5.76-5.89,5.79-8.45,0-16.91,0-25.36,0a24.1,24.1,0,0,1-3.26-.37,4.35,4.35,0,0,1-3.88-3.9,30,30,0,0,1-.14-4.84c0-1,.07-2,.07-3,0-7.9-.43-15.84.1-23.71.86-12.71.32-25.41.58-38.11.07-3.46,1.54-5,5-5.16,2.84-.1,5.69.2,8.54.22,5.71,0,11.42,0,17.13,0,.66,0,1.32,0,2,0,4.14.18,5.61,1.49,5.73,5.57.13,4.6,0,9.22,0,13.83v7.89Zm-19.58-.27c1.43,0,2.86,0,4.28,0,7.85.26,12.38-3.18,12-12.18-.22-5.81-2.81-9.24-8.49-9.78a117.37,117.37,0,0,0-14.77-.38,8.09,8.09,0,0,0-8.26,7.08,22.87,22.87,0,0,0-.1,7.43c.72,4.88,4.11,7.65,9,7.81C577.58,303.28,579.67,303.22,581.75,303.22Zm-13.38,20.07v-8.51C565.14,318,565.09,319.77,568.37,323.29Z"/></svg>