<?xml version="1.0" encoding="utf-8"?>
<!-- Generator: Adobe Illustrator 26.0.1, SVG Export Plug-In . SVG Version: 6.00 Build 0)  -->
<svg version="1.1" id="Layer_1" xmlns="http://www.w3.org/2000/svg" xmlns:xlink="http://www.w3.org/1999/xlink" x="0px" y="0px"
	 viewBox="0 0 2500 1365" style="enable-background:new 0 0 2500 1365;" xml:space="preserve">
<style type="text/css">
	.st0{fill:#FFFFFF;}
	.st1{fill:#5F249F;}
</style>
<path class="st0" d="M113.1,1189.7v171.5H65.8v-171.5H0.2v-43.5h178.2v43.6L113.1,1189.7z M241.8,1361.2v-215h162.4v42.2H288.9v43.6
	h101.3v42.2H288.9v45.2h116.9v42.2h-164L241.8,1361.2z M577.6,1365c-63.4,0-110.5-48.9-110.5-110.8v-0.5
	c0-61.3,46.2-111.3,112.1-111.3c40.6,0,64.8,13.4,84.9,33.3l-30.1,34.7c-16.7-15-33.6-24.2-55.1-24.2c-36.3,0-62.4,30.1-62.4,66.9
	v0.5c0,36.8,25.5,67.7,62.4,67.7c24.5,0,39.8-9.9,56.4-25.3l30.1,30.4C643.7,1350.2,619,1365,577.6,1365L577.6,1365z M866.3,1361.2
	v-86.3h-87.4v86.3h-47.3v-215h47.3v85.2h87.4v-85.2h47.3v215H866.3z M1148.5,1361.2l-104.3-136.8v136.8h-46.8v-215h43.6l100.8,132.5
	v-132.5h46.8v215H1148.5z M1371.6,1365c-66.4,0-114-49.5-114-110.8v-0.5c0-61.3,48.4-111.3,114.8-111.3s114,49.5,114,110.7v0.5
	C1486.2,1315,1438,1365,1371.6,1365z M1436.7,1253.7c0-36.8-27.1-67.7-65-67.7c-38.2,0-64.5,30.1-64.5,66.9v0.5
	c0,36.8,27.1,67.7,65,67.7c37.9,0,64.5-30.1,64.5-66.9V1253.7z M1554.1,1361.2v-215h47.3v172h107.3v43L1554.1,1361.2z M1868.4,1365
	c-66.4,0-114-49.5-114-110.8v-0.5c0-61.3,48.4-111.3,114.8-111.3s114,49.5,114,110.7v0.5C1982.9,1315,1934.8,1365,1868.4,1365z
	 M1933.4,1253.7c0-36.8-27.1-67.7-65.1-67.7c-38.2,0-64.5,30.1-64.5,66.9v0.5c0,36.8,27.1,67.7,65.1,67.7
	c37.9,0,64.5-30.1,64.5-66.9V1253.7z M2153.3,1365c-66.9,0-113.2-47-113.2-110.8v-0.5c0-61.3,47.6-111.3,112.9-111.3
	c38.7,0,62.1,10.5,84.4,29.6l-29.8,36c-16.7-13.7-31.4-21.8-56.2-21.8c-34.4,0-61.8,30.4-61.8,66.9v0.5c0,39.3,27.1,68.3,65,68.3
	c17.2,0,32.5-4.3,44.6-12.9v-30.6h-47.6v-40.9h93.5v93.5C2222.9,1349.7,2192.6,1365,2153.3,1365L2153.3,1365z M2417.3,1275.5v85.7
	H2370v-85l-82.8-130.4h55.4l51.3,86.3l52.1-86.3h53.8L2417.3,1275.5z"/>
<path class="st1" d="M826.8,558c-5.7,38.6-16.9,76.2-33.3,111.6c-24.7,55.9-59.1,109.7-105.4,154.8
	C601,912.6,470.9,968.5,337.8,968.5H1.3V775h336.3c79.6,0,155.9-30.1,207.5-83.9c36.6-37.1,63-82.9,76.9-133.1H826.8z M826.8,410.5
	c-5.7-38.6-16.9-76.2-33.3-111.5c-24.7-55.9-59.1-109.7-105.4-154.8C601,55.9,470.9,0,337.5,0H1.3v193.5h336.3
	c79.6,0,155.9,30.1,207.5,83.9c36.6,37.1,63,82.9,76.9,133.1L826.8,410.5z M1249.1,645.1l-257,323.4H737.3l384.7-484.1L737.5,0
	h254.8l257,323.1L1506,0h254.8l-384.9,484.4l384.7,484.1h-254.8L1249.1,645.1z M1876.2,558c13.9,50.2,40.3,96,76.9,133.1
	c51.6,53.8,127.9,83.9,207.5,83.9h336.3v193.5h-336.3c-133.3,0-263.4-55.9-350.3-144.1c-46.2-45.2-80.6-98.9-105.4-154.8
	c-16.4-35.4-27.6-73-33.3-111.6H1876.2z M1876.2,410.5c13.9-50.2,40.3-96,76.9-133.1c51.6-53.8,127.9-83.9,207.5-83.9h336.3V0
	h-336.3c-133.3,0-263.4,55.9-350.3,144.1c-46.2,45.2-80.6,98.9-105.4,154.8c-16.4,35.4-27.6,73-33.3,111.6L1876.2,410.5z"/>
</svg>
