<svg id="Layer_1" data-name="Layer 1" xmlns="http://www.w3.org/2000/svg" xmlns:xlink="http://www.w3.org/1999/xlink" viewBox="0 0 1080 1080"><defs><style>.cls-1{fill:#1f3c86;}.cls-2{fill:#bc181b;}</style></defs><image width="200" height="200" transform="translate(-1212 -148) scale(6.78)" xlink:href="../../digiupma.png"/><path class="cls-1" d="M631.15,258.1,570.5,204.4c-11.66,11.37-26.55,25.53-41,40.1-29.45,29.63-58.58,59.59-88.15,89.11-3.15,3.14-8.3,6.06-12.53,6.08-68.62.34-137.25.2-205.87.14a7.93,7.93,0,0,1-2.16-.41L553,6,884.18,339.45H637.38V354.1c0,17.63.62,35.3-.23,52.89-.53,10.81,2.42,14.4,13.79,14.32,68.62-.52,137.24-.26,205.86-.26h10L552.68,735.8,240.08,421h8c70.16,0,140.31-.08,210.46.21,7.91,0,13.56-2.21,19.12-7.83q72.8-73.58,146-146.73C625.77,264.54,627.61,262.17,631.15,258.1Z"/><path class="cls-2" d="M146.16,402.07V357.64h13.7q135.7,0,271.4.18c8.27,0,14.23-2.17,20.12-8.24C489,310.82,527.11,272.45,565.06,234c2.38-2.42,4.93-4.67,6.23-5.9l37.06,33.48c-7.07,5.27-13.85,9.16-19.2,14.49-40,39.73-79.53,79.85-119.56,119.51-3.64,3.61-9.62,6.87-14.53,6.89-100,.4-200.09.31-300.14.28C152.33,402.72,149.74,402.35,146.16,402.07Z"/><path class="cls-1" d="M656.72,401.69V359.53H960.47v42.16Z"/><path class="cls-1" d="M466.44,808.17c.19,2.22.43,3.78.43,5.34-.06,68.32,0,136.63-.42,204.94a65.6,65.6,0,0,1-4.29,22.35c-5.88,15.55-17.47,25.36-33.72,29.5a84.53,84.53,0,0,1-39.34.73c-18.42-4-30.14-14.81-33-34-.87-5.87-1.23-11.82-1.86-18.14h46.35c.7,3,.66,6.4,2.22,8.66,1.75,2.54,5,5.68,7.52,5.6s6.92-3.48,7.22-5.85c1.4-11.08,1.68-22.3,2.36-33.47l-2-.47-4.85,4.53c-19.76,18.54-48.32,10.59-55.11-15.72a106,106,0,0,1-3.17-25.47c-.25-35.55-.22-71.1.36-106.64a84.08,84.08,0,0,1,4.5-25.22c7.76-22.91,33.32-28.1,50.08-10.58,2.84,3,5.19,6.41,7.74,9.6.65-.38,1.29-.53,1.36-.83,3.84-14.84,3.83-14.85,19.47-14.87ZM418.2,905.53h.73c0-11.86.14-23.72-.06-35.57a141.88,141.88,0,0,0-1.49-20.83c-.37-2.23-3.65-5.37-5.79-5.53s-5.36,2.37-6.73,4.57c-1.49,2.4-1.9,5.78-1.91,8.73-.11,33.24-.19,66.49.1,99.73,0,4.73-.06,11.51,7.12,11.58,7.42.07,7.15-6.54,7.86-11.79a19.85,19.85,0,0,0,.16-2.78Q418.21,929.58,418.2,905.53Z"/><path class="cls-1" d="M260.49,1033.36H212.6V808.66h48.26V828c1.82-2.48,2.92-3.71,3.72-5.11,8.21-14.53,19.31-20.73,32.81-18.26s23.42,13.11,25.33,28.68a316.67,316.67,0,0,1,2.38,36.81c.31,52.3.24,104.61.28,156.92,0,2-.26,4.06-.42,6.41H277.23c-.13-2.81-.36-5.49-.36-8.17q0-77.41.06-154.82c0-6.27-.51-12.54-.81-18.8-.23-4.67-1.88-8.54-7.22-8.39-5.18.15-6.95,4.12-7.29,8.65-.54,7.18-1.17,14.38-1.18,21.57q-.09,75.31.06,150.64C260.5,1027.05,260.49,1030,260.49,1033.36Z"/><path class="cls-1" d="M609.05,924.22h-63a19.65,19.65,0,0,0-.94,4q.24,28.93.59,57.87a23.63,23.63,0,0,0,.26,3.47c.73,4.29,1.81,8.54,7.2,8.8s8-3.35,8.59-8.19a172.91,172.91,0,0,0,1.45-18c.23-10.39.06-20.79.06-31.55h45.47c.55,27.68,3.06,55.49-15.08,79.51-20.55,27.2-69.6,22.82-86.37-7.57a75.3,75.3,0,0,1-9.62-36q-.52-55.44.1-110.88c.09-7.77,1.89-15.7,4-23.25,6.82-24.34,25.35-38.49,49.32-38.34,25.52.15,46.25,14.84,52,39.14,3.52,15,4.58,30.69,5.78,46.15C609.75,900.62,609.05,912.05,609.05,924.22Zm-48.42-55.07.36,0c-.45-6.46-.32-13-1.65-19.33-.55-2.55-4.37-6.24-6.55-6.14-2.35.11-6.27,3.9-6.48,6.34a343.9,343.9,0,0,0-1.07,34.73c.12,6.53,5.87,3.38,9.22,3.87,2.91.43,6.3.62,6.2-4.14C560.54,879.36,560.63,874.26,560.63,869.15Z"/><path class="cls-1" d="M830.31,924.23H779c-14.68,0-11.95-1-12.08,12.35-.15,15.56.14,31.13.32,46.7,0,2.54-.17,5.48,1,7.52,1.62,2.87,4,6.41,6.81,7.26,4.42,1.34,7.49-2.18,8.25-6.47A109.62,109.62,0,0,0,785,975c.24-11.32.07-22.65.07-34.39H831c-.43,25.25,1.44,49.93-11.23,73.47-18.38,34.16-74.29,29-90.19-.6-6.21-11.56-9.9-23.82-9.93-36.63-.07-40.39-.36-80.83,1.47-121.17,1.27-27.77,18.57-47,41-50.51,32.75-5.16,57.13,11.26,64.58,43.49C830.63,865.54,832.64,906.37,830.31,924.23Zm-47.69-55.65h.11c-.26-5.57-.3-11.16-.85-16.71-.42-4.29-1.66-8.71-7.18-8.59-5.32.11-6.91,4.12-7.07,8.67-.34,10.21-.18,20.45-.83,30.64-.43,6.73,3.65,6.13,8,6.16s8.56.38,7.93-6.23C782.27,877.91,782.62,873.23,782.62,868.58Z"/><path class="cls-1" d="M970.6,892.26H923.4c0-9.35.09-18.34,0-27.33a113.11,113.11,0,0,0-.83-13.9c-.56-4.12-2.61-8.54-7.29-7.51-2.69.6-5.31,4.47-6.63,7.45-1.24,2.81-1,6.39-1,9.63,0,38.82-.06,77.65.13,116.47a40.6,40.6,0,0,0,2.33,14.32c1.12,2.85,4.92,6.59,7.32,6.45s5.93-4.23,6.66-7.16c1.44-5.77,1.58-11.94,1.73-17.95.24-10,.06-19.93.06-30.46h42.91c-.34,25.17,1.63,50.6-12.76,73.39-11.82,18.71-30.64,25.64-56.14,20.76-18.5-3.54-33.08-18.9-36.5-40.27a287.9,287.9,0,0,1-3.87-42.24c-.33-30.44.12-60.89.81-91.33.37-16.64,4.67-32,17.43-44.11,28.07-26.68,74.92-15.1,85.27,22.24C967.57,857,968.12,874.43,970.6,892.26Z"/><path class="cls-1" d="M639.4,758.54h48.84V1033.4H639.4Z"/><path class="cls-1" d="M180.4,1033.36H131.49V808.52H180.4Z"/><path class="cls-1" d="M180.38,758.22V793H131.22c0-10.63-.1-21.17.16-31.71,0-1,2.29-2.91,3.53-2.93C149.9,758.14,164.9,758.22,180.38,758.22Z"/></svg>