<svg width="433" height="123" viewBox="0 0 433 123" fill="none" xmlns="http://www.w3.org/2000/svg">
<path d="M74.3181 80.9369C73.2289 80.6018 73.1451 79.0936 74.4019 78.5909C96.0183 68.3692 94.594 45.1609 94.594 45.1609C94.5102 21.6174 77.2505 -0.166609 49.434 0.000960491C18.4337 0.16853 -0.166447 24.5499 0.00112268 53.3718C0.252477 103.81 38.7934 123.081 50.7746 122.997L50.6908 102.972C50.6908 99.7884 50.6908 97.2749 52.6179 97.2749C52.6179 97.2749 65.018 109.675 78.7587 109.675C100.208 109.591 107.497 91.5775 107.497 91.5775L74.3181 80.9369ZM49.5178 65.5205C38.542 65.6043 29.6609 56.7231 29.5771 45.7474C29.4933 34.7716 38.3745 25.8904 49.3503 25.8066C60.3261 25.7228 69.2072 34.604 69.291 45.5798C69.291 56.5556 60.4098 65.4367 49.5178 65.5205Z" fill="#0055DA"/>
<path fill-rule="evenodd" clip-rule="evenodd" d="M348.712 20.2774C348.712 15.6692 352.399 11.9827 357.007 11.9827C361.615 11.9827 365.302 15.753 365.302 20.2774C365.302 24.8855 361.615 28.5721 357.007 28.5721C352.399 28.5721 348.712 24.8855 348.712 20.2774ZM350.304 36.3643H363.709V92.6676H350.304V36.3643ZM419.595 16.7589V35.4428V43.6537C417.584 40.3861 411.468 34.605 400.743 34.605C385.494 34.605 372.424 46.1673 372.424 64.4323C372.424 80.8541 383.567 94.4272 400.911 94.4272C412.389 94.4272 417.751 88.8136 420.181 84.5406V92.6677H433V16.7589H419.595ZM415.573 76.6649C412.389 79.8487 407.949 81.7757 403.089 81.7757C392.7 81.7757 385.829 73.9838 385.829 64.4323V64.3485C385.829 55.5511 392.197 47.0889 403.173 47.0889C408.032 47.0889 412.305 48.9322 415.405 52.0322C418.505 55.0484 420.432 59.2377 420.432 64.0972C420.6 69.0405 418.757 73.4811 415.573 76.6649ZM293.499 44.5748C297.52 38.8774 304.139 34.6044 313.44 34.6044C333.129 34.6044 341.507 51.2775 341.424 65.0182C341.424 81.0211 330.029 94.4266 313.523 94.4266C302.548 94.4266 296.599 88.8131 294.337 85.2103V92.6672V112.357H280.931V36.3639H293.499V44.5748ZM310.926 81.8589C321.148 81.8589 328.018 73.7318 328.018 64.5155H328.102V64.4317C328.102 56.3046 322.237 47.0883 310.842 47.0883C305.899 47.0883 301.71 49.0154 298.61 52.1992C295.593 55.2992 293.75 59.656 293.75 64.5993C293.75 69.4588 295.593 73.7318 298.693 76.8319C301.794 79.9319 306.067 81.8589 310.926 81.8589ZM255.795 44.5748C253.366 40.0504 247.082 34.6044 236.776 34.6044C220.941 34.6044 208.122 46.6694 208.122 64.4317C208.122 80.3508 218.679 94.4266 236.776 94.4266C244.652 94.4266 252.193 91.159 255.795 84.54V92.6671H269.201V36.3639H255.795V44.5748ZM255.879 64.9344C255.711 67.6993 255.041 70.3804 253.701 72.8102C251.103 77.9211 246.244 81.8589 238.703 81.8589C226.638 81.8589 221.611 71.721 221.611 64.7669V64.6831C221.611 55.9695 227.727 47.1721 238.619 47.1721C246.747 47.1721 251.941 51.7803 254.287 57.1425C255.46 59.4884 255.963 62.2533 255.879 64.9344ZM172.849 16.6748C190.36 16.6748 202.173 25.3046 202.173 41.7264C202.173 54.5455 193.208 63.2591 180.389 65.3537L206.363 89.1485C203.933 92.1647 200.414 93.3377 196.895 93.3377C189.689 93.3377 185.165 90.5728 179.133 83.6187C175.362 79.3457 165.141 67.5321 165.141 67.5321C165.141 67.5321 164.051 65.9402 162.292 65.9402H161.705V92.5837H146.457V16.6748H172.849ZM170.084 28.0695H161.873V55.3833H170.084C178.546 55.3833 187.595 51.7806 187.595 41.8102C187.595 32.5101 180.557 28.0695 170.084 28.0695Z" fill="#021577"/>
</svg>