<svg id="Layer_1" data-name="Layer 1" xmlns="http://www.w3.org/2000/svg" viewBox="0 0 1080 1080"><defs><style>.cls-1{fill:#fff;}</style></defs><path class="cls-1" d="M507.52,123.19c.91-5.14,2.17-12.22,8.66-12.83,12-1,23.94,2.49,35.87.2,7.72-.06,20.82-3.46,22.64,7.23,1.53,18.41,4.46,36.74,5.67,55.19.88,3.7.7,8.25,3.91,10.92,18.47,2.64,36.56,7.78,55.15,9.4,12.52-19.5,23.5-39.94,35.37-59.83,13.3.12,24.29,9.11,36.83,12.6,7.58,4,18.24,4.35,22.91,12.31-6.23,20.59-11.37,41.47-17.8,62-1.76,4.61,3.26,7.46,6.34,9.69,11.52,7.17,23.32,13.87,34.07,22.21,3.53,2.79,9.17,6.11,13.07,2,15.36-14,32.81-25.4,49.29-38,6.87-3.06,11,3.79,15,8,10.42,12,22.17,22.61,33.21,34-12.57,18.27-27.19,35-40.47,52.78-2.08,2.82-2.91,6.52-.21,9.28,7.76,11,15.87,21.79,22.77,33.39,3,4.65,6.43,11.72,13.21,8.85,19.54-5.2,39.21-9.93,58.63-15.63,6.78.79,8.87,8.25,11.34,13.48,5,13.34,11.13,26.14,16.77,39.15,1.85,4.56-3.41,7.37-6.41,9.52-15.39,9.1-31.1,17.65-46.64,26.49-3.37,1.65-5.46,4.85-7.87,7.58,5.61,16.24,8.08,33.36,10.16,50.34-.23,3.64,3.21,5.41,6,6.64,21.12,2,42.24,4.49,63.24,7.43,1.06,1.41,3.17,4.23,4.26,5.64-.65,17.74-.32,35.51,0,53.28-10,8.9-24.44,5.14-36.3,8.78-10,1.09-20,2.41-30,3.82-4,0-7.17,3.61-7.4,7.4-2.21,15.39-4.32,31-9.9,45.58,2.17,3.32,3.85,7.4,7.84,9,16.8,8.67,33.13,18.18,49.73,27.29,5.25,2.11,4.26,9.07,1.82,13-7.84,14.95-13.1,31.07-20.39,46.29-21.47-1-41.53-10.22-62.56-14.1-2.29-.59-4.58-1.18-6.84-1.73-9.81,8.69-13.1,22.14-21.41,32.1-3.94,6.25-12.66,12.92-8,21.06,11.87,16.74,25.52,32.22,37.6,48.84,3.23,7-4.2,11.4-8.32,15.68-11.95,10.08-21.29,22.91-33.74,32.4C805.13,849.3,786.84,834.7,768.86,820c-6.72.2-11.1,5.67-16.3,9.13-10.16,7.76-21.79,13.28-32.37,20.39-.61,1.08-1.85,3.28-2.49,4.4,5,20.82,12.48,41.09,17.15,62,1.62,6.08-4.85,7.9-8.93,10.19-15,6.38-30.16,12.43-44.88,19.45-2.93-2.18-6.43-3.88-8-7.34-11.1-17.48-19.06-37.19-31.8-53.43-14.72-1.47-28.64,5.82-43.27,6.52-6.87.56-17.44,1.23-16.89,10.69-2.14,17.39-5.4,34.72-5.66,52.28.11,4.44-1.65,8.58-3,12.75-16.89,1.67-34.22-2-50.72,2.58-4.56-1.88-10.93-2.46-12.69-7.93-5.29-10.57-.62-22.79-4.7-33.63-.27-10.25-3.5-20.29-2.67-30.54-6.73-7.76-17.8-5.67-26.82-8-9.75-2.88-20.18-3.23-29.58-7.14-9.57,3.35-12.1,14.22-17.21,21.88-8.22,13.4-14.6,28-23.91,40.68-6.37,2-12.21-2.67-17.88-4.81-12.87-6.82-27.05-10.64-39.86-17.63.62-13.18,6.11-25.37,9-38.12,1.44-6.55,3.35-13,5.29-19.41,1.55-5.7,5-14.1-1.68-17.8-13.19-8.61-26.23-17.48-39.39-26.11-5.78-3.18-10.51,3.49-14.89,6.34-16.09,11.87-30.84,25.73-48,36C247.7,858,241.45,849.62,234,842.6c-6.88-7.1-15-12.92-21.33-20.53-1.61-4.2,1.68-7.6,3.85-10.69,13.39-16.77,27.32-33.16,39.48-50.87-4.67-13.27-15.42-23.67-22.06-36.12-3.32-4.12-4.76-12.28-11.6-10.64-22.12,3.65-43.12,12.4-65.15,16.51-10.28.76-10.34-12.54-14-19.3-3.55-9.13-7.52-18.09-11.81-26.9-4-5.67.21-13,5.73-15.74,16.33-8.43,31.63-18.65,47.73-27.49,3.55-2.24,8.78-4.59,7.55-9.79-1.62-12.86-7.17-25-7-38.21-.18-5.17-.68-13.33-7.46-13.63-18.42-2.14-36.78-4.78-55.25-6.6-5.67-.65-11.54-1.47-15.89-5.55.32-19.21.09-38.42.21-57.6,24-8.55,50.93-3.73,74.8-12.75,5.56-5.58,2.79-13.89,4.09-20.82,1.85-11.05,5.25-21.74,7.93-32.57-.56-1.15-1.74-3.44-2.29-4.59-19.3-11.1-38.69-22.05-57.86-33.33-5.82-2.62-4.67-10.08-1.71-14.45,7.84-15,13.07-31.28,21-46.26,24.26,3,47.26,13.48,71.17,18,11.75-7.84,15.83-22.85,24.93-33.31,2.76-5.11,11.43-10.45,6.44-16.8-13-16.33-25.38-33.13-38.57-49.28-3.58-3.52-3.58-10.1.71-13.07,13.71-12.22,25.43-26.64,40.12-37.74,19.76,12.69,37.62,28.14,56.42,42.18,5.2,4.75,10.69-1.27,15-4a152.81,152.81,0,0,1,31-19.12c7.49-2.7,4.94-11.54,3.23-17.36-5.61-19.62-12.66-39.12-15.15-59.45,12.13-7.66,26.26-11.07,38.91-17.68,5.7-2.17,11.25-6,17.54-5.72,9.93,12.21,15.95,27.11,24.52,40.29,5.14,7.43,7.67,17.77,15.83,22.47,17.39-3.82,35-7,52.34-10.84,7.9-8.93,4.5-23.2,6.67-34.36C507,140.64,505.64,131.68,507.52,123.19Zm-47,140.69c-30.48,8.78-60.76,20.82-85.79,40.74-28.9,21.88-48.55,55.3-54.63,91-6.31,30.46-.32,62.35,11.81,90.61C348.65,512.83,369.15,539,398,553.06c15.83,10.75,35.37,13.25,53.66,17.42,45-1.23,90-.76,135-.85,20.5.12,41.89.32,60.89,9,18.18,8.4,33.25,23.52,40.8,42.14,10.63,25.5,7.51,55.84-6.67,79.28-19.5,24.46-48.14,40.79-78.3,48.11-20.21,8.13-42.21,10.3-63.74,12.24-24.52-2.93-50.17-1.35-73.19-11.77-31.93-9.49-61.56-27-84.36-51.32-10.07-8.92-25.17-16.3-38.41-10a35,35,0,0,0-21.83,31.87c.71,12.13,8.17,22.7,17.74,29.75,46.7,42.47,107.06,71.58,170.71,74.22,23.61.26,47.4,1.32,70.84-2.29,40.74-5.14,80.57-19.42,114.37-42.94,25.56-17.42,45.73-42.94,55.54-72.37,10.52-29.58,10.66-62.12,3.62-92.49-1.3-3.61-2.47-7.26-3.68-10.87-7.4-24.23-24.43-43.7-42.2-61.06-8.31-5.11-15.74-11.48-24-16.68-21.64-10.43-44.79-18.74-69.14-18.83-53.8-1.06-107.7.18-161.51-.62-10.42-2.11-20.12-6.9-29.69-11.33-27.93-15.75-43-49-41-80.39,1.88-14.42,8-27.73,15.62-40,7.34-10.19,18.56-16.44,28.37-23.93,17.45-12.84,38.27-19.86,59.1-24.94a198.36,198.36,0,0,1,70.9-6.05c28.46,1.41,56.83,8,82.36,20.85l5.75,5.06,5,1.14c9.72,10.34,24.78,12.57,34.48,23,11.89,11.16,24.29,27.84,42.88,23.41,24.2-1.12,37-34.19,20.56-51.64-32.87-36.39-76.57-62.7-123.57-76.48-15.5-3.85-31.13-7.84-47.19-8.43C538.74,250,498.59,254,460.55,263.88Z"/></svg>